<?xml version="1.0" standalone="no"?>
<!DOCTYPE svg PUBLIC "-//W3C//DTD SVG 20010904//EN"
 "http://www.w3.org/TR/2001/REC-SVG-20010904/DTD/svg10.dtd">
<svg version="1.0" xmlns="http://www.w3.org/2000/svg"
 width="128.000000pt" height="128.000000pt" viewBox="0 0 128.000000 128.000000"
 preserveAspectRatio="xMidYMid meet">
<metadata>
Created by potrace 1.14, written by Peter Selinger 2001-2017
</metadata>
<g transform="translate(0.000000,128.000000) scale(0.100000,-0.100000)"
fill="#000000" stroke="none">
<path d="M530 1227 c-3 -3 -30 -7 -60 -11 -61 -6 -79 -9 -230 -38 -58 -11
-109 -24 -114 -28 -19 -18 17 -38 104 -60 l88 -22 -20 -56 c-16 -42 -22 -90
-26 -182 -9 -233 -11 -218 26 -251 18 -16 42 -50 52 -75 24 -54 107 -138 155
-155 44 -16 49 -49 8 -49 -51 -1 -201 -38 -250 -63 -83 -43 -119 -86 -129
-155 l-6 -42 511 0 c480 0 511 1 511 18 0 70 -48 132 -136 176 -54 27 -199 66
-246 66 -41 0 -37 33 6 48 49 18 117 83 146 138 14 27 40 66 60 87 29 31 34
44 33 80 -1 23 -2 89 -2 147 0 72 -7 129 -20 180 -12 41 -21 78 -21 81 0 4 15
9 33 12 17 4 53 13 80 21 l47 15 0 -167 c0 -117 -4 -172 -12 -180 -7 -7 -8
-12 -4 -12 5 0 3 -7 -4 -15 -10 -12 -14 -51 -11 -107 1 -10 12 -25 26 -34 24
-16 26 -16 44 5 13 15 19 38 20 76 0 30 -3 55 -7 55 -24 0 -32 66 -30 241 l2
184 -55 12 c-30 7 -92 19 -139 27 -47 8 -101 18 -120 21 -49 8 -304 18 -310
12z"/>
</g>
</svg>
