<svg width="32" height="32" viewBox="0 0 32 32" fill="none" xmlns="http://www.w3.org/2000/svg">
<path d="M16 0C7.2 0 0 7.2 0 16C0 24.8 7.2 32 16 32C24.8 32 32 24.8 32 16C32 7.2 24.8 0 16 0ZM18.3 22.4C18.3 22.4 17.2 22.5 16 22.5C14.8 22.5 13.7 22.4 13.7 22.4C10.9 22.1 8 21 8 16.2C8 14.8 8.5 13.7 9.3 12.8C9.2 12.5 8.7 11.2 9.4 9.5C9.4 9.5 10.5 9.2 12.8 10.8C13.8 10.5 14.9 10.4 15.9 10.4C17 10.4 18 10.5 19 10.8C21.4 9.2 22.4 9.5 22.4 9.5C23.1 11.2 22.7 12.5 22.5 12.8C23.3 13.7 23.8 14.8 23.8 16.2C24 21 21.1 22.1 18.3 22.4Z" fill="#444444"/>
</svg>
