<svg width="32" height="32" viewBox="0 0 32 32" fill="none" xmlns="http://www.w3.org/2000/svg">
<path d="M15.9999 19.1C17.712 19.1 19.0999 17.7121 19.0999 16C19.0999 14.2879 17.712 12.9 15.9999 12.9C14.2878 12.9 12.8999 14.2879 12.8999 16C12.8999 17.7121 14.2878 19.1 15.9999 19.1Z" fill="#444444"/>
<path d="M19.6001 12.9H21.8001C22.0001 12.9 22.2001 12.7 22.2001 12.5V10.3C22.2001 10.1 22.0001 9.89999 21.8001 9.89999H19.6001C19.4001 9.89999 19.2001 10.1 19.2001 10.3V12.5C19.1001 12.7 19.3001 12.9 19.6001 12.9Z" fill="#444444"/>
<path d="M16 0C7.2 0 0 7.2 0 16C0 24.8 7.2 32 16 32C24.8 32 32 24.8 32 16C32 7.2 24.8 0 16 0ZM24 22.1C24 23.1 23.1 24 22.1 24H9.9C8.9 24 8 23.2 8 22.1V9.9C8 8.8 8.9 8 9.9 8H22.1C23.1 8 24 8.8 24 9.9V22.1Z" fill="#444444"/>
<path d="M20.9 16C20.9 18.7 18.7 20.9 16 20.9C13.3 20.9 11.1 18.7 11.1 16C11.1 15.6 11.2 15.1 11.3 14.7H9.80005V21.7C9.80005 21.9 10 22.1 10.2 22.1H21.7C21.9 22.1 22.1 21.9 22.1 21.7V14.7H20.6C20.8 15.1 20.9 15.6 20.9 16Z" fill="#444444"/>
</svg>
