<svg width="32" height="32" viewBox="0 0 32 32" fill="none" xmlns="http://www.w3.org/2000/svg">
<path d="M19.5 18.9C17.4 17.6 14.8 17.3 11.7 18C11.5 18.1 11.3 18.3 11.3 18.6C11.4 18.8 11.6 19 11.9 19C14.7 18.4 17.1 18.6 18.9 19.8C19.1 20 19.4 19.9 19.6 19.6C19.8 19.3 19.8 19 19.5 18.9Z" fill="#444444"/>
<path d="M20.5 16.6C18 15.1 14.4 14.6 11.5 15.5C11.2 15.6 11 15.9 11.1 16.3C11.2 16.6 11.5 16.8 11.9 16.7C14.4 15.9 17.7 16.3 19.9 17.6C20.2 17.8 20.5 17.7 20.7 17.4C20.8 17.1 20.7 16.7 20.5 16.6Z" fill="#444444"/>
<path d="M16 0C7.2 0 0 7.2 0 16C0 24.8 7.2 32 16 32C24.8 32 32 24.8 32 16C32 7.2 24.8 0 16 0ZM16 24C11.6 24 8 20.4 8 16C8 11.6 11.6 8 16 8C20.4 8 24 11.6 24 16C24 20.4 20.4 24 16 24Z" fill="#444444"/>
<path d="M11.0001 12.8C10.6001 12.9 10.4001 13.3 10.5001 13.7C10.6001 14.1 11.0001 14.3 11.4001 14.2C13.8001 13.4 18.1001 13.6 20.7001 15.1C21.1001 15.3 21.5001 15.2 21.7001 14.9C21.9001 14.5 21.8001 14.1 21.4001 13.9C18.5001 12.1 13.8001 12 11.0001 12.8Z" fill="#444444"/>
</svg>
