<svg width="32" height="32" viewBox="0 0 32 32" fill="none" xmlns="http://www.w3.org/2000/svg">
<path d="M16 0C7.2 0 0 7.2 0 16C0 24.8 7.2 32 16 32C24.8 32 32 24.8 32 16C32 7.2 24.8 0 16 0ZM22.4 12.7C22.4 12.8 22.4 13 22.4 13.1C22.4 17.4 19.1 22.4 13.1 22.4C11.2 22.4 9.5 21.9 8.1 20.9C8.4 20.9 8.6 20.9 8.9 20.9C10.4 20.9 11.9 20.4 13 19.5C11.6 19.5 10.4 18.5 9.9 17.2C10.1 17.2 10.3 17.3 10.5 17.3C10.8 17.3 11.1 17.3 11.4 17.2C9.9 16.9 8.8 15.6 8.8 14C9.2 14.2 9.7 14.4 10.3 14.4C9.4 13.8 8.8 12.8 8.8 11.7C8.8 11.1 9 10.5 9.2 10C10.8 12 13.2 13.3 16 13.4C15.9 13.2 15.9 12.9 15.9 12.7C15.9 10.9 17.4 9.4 19.2 9.4C20.1 9.4 21 9.8 21.6 10.4C22.3 10.3 23.1 10 23.7 9.6C23.5 10.4 22.9 11 22.3 11.4C23 11.3 23.6 11.1 24.2 10.9C23.6 11.7 23 12.3 22.4 12.7Z" fill="#444444"/>
</svg>
