<svg width="32" height="32" viewBox="0 0 32 32" fill="none" xmlns="http://www.w3.org/2000/svg">
<path d="M16 0C7.2 0 0 7.2 0 16C0 24.8 7.2 32 16 32C24.8 32 32 24.8 32 16C32 7.2 24.8 0 16 0ZM24 16.6C24 17.9 23.8 19.2 23.8 19.2C23.8 19.2 23.6 20.3 23.2 20.8C22.6 21.4 21.9 21.4 21.6 21.5C19.4 21.7 16 21.7 16 21.7C16 21.7 11.8 21.7 10.6 21.5C10.2 21.4 9.4 21.5 8.8 20.8C8.3 20.3 8.2 19.2 8.2 19.2C8.2 19.2 8 17.9 8 16.6V15.4C8 14.1 8.2 12.8 8.2 12.8C8.2 12.8 8.4 11.7 8.8 11.2C9.4 10.6 10.1 10.6 10.4 10.5C12.6 10.3 16 10.3 16 10.3C16 10.3 19.4 10.3 21.6 10.5C21.9 10.5 22.6 10.5 23.2 11.2C23.7 11.7 23.8 12.8 23.8 12.8C23.8 12.8 24 14.1 24 15.4V16.6Z" fill="#444444"/>
<path d="M14.3 18.1L18.7 15.8L14.3 13.6V18.1Z" fill="#444444"/>
</svg>
